<svg width="14" height="14" viewBox="0 0 14 14" fill="none" xmlns="http://www.w3.org/2000/svg">
<path fill-rule="evenodd" clip-rule="evenodd" d="M3.37132 8.80469C3.16856 8.80469 2.96579 8.72412 2.80342 8.56152L1.20113 6.97998C-0.400375 5.37842 -0.400375 2.78271 1.20113 1.20117C2.80263 -0.400391 5.39812 -0.400391 6.97987 1.20117L8.58138 2.80273C8.90611 3.12744 8.90611 3.63428 8.58138 3.95801C8.25662 4.2832 7.74973 4.2832 7.42578 3.95801L5.82428 2.35693C5.35777 1.89014 4.72969 1.62646 4.0802 1.62646C3.41092 1.62646 2.80263 1.89014 2.33612 2.35693C1.36269 3.33008 1.36269 4.89111 2.33612 5.84424L3.93762 7.44531C4.26236 7.77051 4.26236 8.27734 3.93762 8.60107C3.79663 8.72412 3.57407 8.80469 3.37132 8.80469ZM9.90009 13.9751C8.84587 13.9751 7.81142 13.5698 7.00037 12.7793L5.39886 11.1777C5.07411 10.853 5.07411 10.3462 5.39886 10.022C5.7236 9.69727 6.23051 9.69727 6.55444 10.022L8.15594 11.6235C9.12938 12.5972 10.6905 12.5972 11.6433 11.6235C12.6167 10.6504 12.6167 9.08936 11.6433 8.13623L10.0418 6.53467C9.71703 6.20996 9.71703 5.70312 10.0418 5.37939C10.3665 5.05469 10.8734 5.05469 11.1974 5.37939L12.7989 6.98096C14.4004 8.58252 14.4004 11.1777 12.7989 12.7598C11.9886 13.5698 10.9542 13.9751 9.90009 13.9751ZM7.72977 8.84521C7.89214 9.00781 8.09491 9.08838 8.29767 9.08838C8.52101 9.08838 8.72377 9.00732 8.88536 8.86475C9.2101 8.54102 9.2101 8.03418 8.88536 7.70947L6.27011 5.09424C5.94618 4.76953 5.43927 4.76953 5.11453 5.09424C4.78978 5.41797 4.78978 5.9248 5.11453 6.24951L7.72977 8.84521Z" fill="#C7CACC"/>
</svg>
